<svg width="65" height="31" viewBox="0 0 65 31" fill="none" xmlns="http://www.w3.org/2000/svg">
<g clip-path="url(#clip0)">
<path d="M39.7758 16.4954H44.6263V30.0747H51.4176V16.4954H56.2681V9.70498H39.7758V16.4954Z" fill="#FEFEFE"/>
<path d="M24.6244 9.70418H0V30.0739H6.79043V16.4986H10.671V30.0739H17.4622V16.4986H21.3428V30.0739H28.134V13.2139C28.134 12.283 27.7643 11.3903 27.1061 10.7321C26.4479 10.0739 25.5552 9.70418 24.6244 9.70418Z" fill="#FEFEFE"/>
<path d="M37.8359 9.70498H31.0447V30.0747H37.8359V9.70498Z" fill="#FEFEFE"/>
<path d="M65 9.70498H58.2088V30.0747H65V9.70498Z" fill="#FEFEFE"/>
<path d="M34.9845 6.7446C36.8356 6.44413 38.0926 4.69991 37.7922 2.8488C37.4917 0.997679 35.7475 -0.259362 33.8964 0.0411167C32.0452 0.341595 30.7882 2.08581 31.0887 3.93693C31.3892 5.78804 33.1334 7.04508 34.9845 6.7446Z" fill="#FEFEFE"/>
<path d="M65.1368 3.52249C65.2118 1.64714 63.7523 0.066062 61.877 -0.00895186C60.0016 -0.0839657 58.4206 1.37549 58.3456 3.25084C58.2705 5.12618 59.73 6.70726 61.6053 6.78228C63.4807 6.85729 65.0618 5.39783 65.1368 3.52249Z" fill="#FEFEFE"/>
</g>
<defs>
<clipPath id="clip0">
<rect width="65" height="30.0747" fill="white"/>
</clipPath>
</defs>
</svg>
